<?xml version="1.0" standalone="no"?>
<!DOCTYPE svg PUBLIC "-//W3C//DTD SVG 20010904//EN"
 "http://www.w3.org/TR/2001/REC-SVG-20010904/DTD/svg10.dtd">
<svg version="1.0" xmlns="http://www.w3.org/2000/svg"
 width="307.000000pt" height="307.000000pt" viewBox="0 0 307.000000 307.000000"
 preserveAspectRatio="xMidYMid meet">
<metadata>
Created by potrace 1.11, written by Peter Selinger 2001-2013
</metadata>
<g transform="translate(0.000000,307.000000) scale(0.100000,-0.100000)"
fill="#000000" stroke="none">
<path d="M1415 2774 c-214 -23 -415 -96 -595 -217 -95 -63 -261 -230 -323
-323 -95 -144 -166 -315 -198 -479 -21 -103 -18 -359 4 -465 53 -247 168 -462
342 -635 187 -187 415 -306 679 -351 136 -24 369 -15 497 19 367 97 649 321
815 649 86 170 123 317 131 513 14 359 -109 671 -366 926 -187 186 -394 297
-642 344 -85 16 -275 26 -344 19z m345 -270 c249 -63 478 -233 610 -455 40
-68 100 -206 100 -231 0 -7 -16 24 -34 69 -140 338 -467 579 -816 600 -101 6
-128 16 -109 39 15 19 124 9 249 -22z m-409 -882 c91 -205 170 -374 174 -375
5 -1 83 167 175 373 l168 375 66 3 66 3 0 -466 0 -465 -60 0 -60 0 -2 342 -3
342 -151 -339 -151 -340 -47 0 -47 0 -149 334 c-82 183 -152 336 -155 339 -3
3 -5 -148 -5 -336 l0 -342 -60 0 -60 0 0 465 0 466 67 -3 67 -3 167 -373z
m1126 156 c-3 -8 -6 -5 -6 6 -1 11 2 17 5 13 3 -3 4 -12 1 -19z m10 -40 c-3
-8 -6 -5 -6 6 -1 11 2 17 5 13 3 -3 4 -12 1 -19z m10 -50 c-3 -8 -6 -5 -6 6
-1 11 2 17 5 13 3 -3 4 -12 1 -19z m-1940 -330 c-3 -8 -6 -5 -6 6 -1 11 2 17
5 13 3 -3 4 -12 1 -19z m10 -50 c-3 -8 -6 -5 -6 6 -1 11 2 17 5 13 3 -3 4 -12
1 -19z m78 -198 c49 -96 93 -158 172 -241 170 -177 389 -279 638 -297 70 -6
90 -10 90 -22 0 -39 -227 -11 -370 45 -223 88 -423 271 -530 485 -29 57 -76
186 -74 204 0 6 11 -18 23 -54 13 -36 36 -90 51 -120z"/>
</g>
</svg>
